# xmcd
#
# Track frame offsets:
#	150
#	14860
#	43237
#	69472
#	103718
#	127733
#	148829
#	165848
#
# Disc length: 2819 seconds
# Revision: 0
# Processed by: cddbd v1.5.2PL0 Copyright (c) Steve Scherf et al.
# Submitted via: dBpowerAMP V12.0
#
DISCID=6c0b0108
DTITLE=Charlie Daniels - Uneasy Rider
DYEAR=1973
DGENRE=Southern Rock
TTITLE0=Funky Junky
TTITLE1=Big Man
TTITLE2=Why Can't People
TTITLE3=Revelations
TTITLE4=Uneasy Rider
TTITLE5=Midnight Lady
TTITLE6=Somebody Love You
TTITLE7=No Place To Go
EXTD=
EXTT0=
EXTT1=
EXTT2=
EXTT3=
EXTT4=
EXTT5=
EXTT6=
EXTT7=
PLAYORDER=
